Coordinates
version=1
nRows=13
nColumns=40
inDegrees=yes

Units are S.I. units (second, meters, Newtons, ...)
Angles are in degrees.

endheader
time	pelvis_tilt	pelvis_list	pelvis_rotation	pelvis_tx	pelvis_ty	pelvis_tz	hip_flexion_r	hip_adduction_r	hip_rotation_r	knee_angle_r	knee_angle_r_beta	ankle_angle_r	subtalar_angle_r	mtp_angle_r	hip_flexion_l	hip_adduction_l	hip_rotation_l	knee_angle_l	knee_angle_l_beta	ankle_angle_l	subtalar_angle_l	mtp_angle_l	lumbar_extension	lumbar_bending	lumbar_rotation	arm_flex_r	arm_add_r	arm_rot_r	elbow_flex_r	pro_sup_r	wrist_flex_r	wrist_dev_r	arm_flex_l	arm_add_l	arm_rot_l	elbow_flex_l	pro_sup_l	wrist_flex_l	wrist_dev_l
     38.68114286	     -1.03072432	     -6.48542295	      6.17486704	      1.09235726	      0.93172244	      0.50354782	      5.47948943	      5.67142311	    -18.80821527	     13.64931584	     13.64931584	     11.29493582	     -0.97783732	     -6.46590770	     33.46049251	    -13.67414058	     -0.03938491	     46.27446779	     46.27446779	     10.31886824	    -18.61689499	     15.75354091	    -10.32720793	      7.56100786	      4.89731508	     17.72467562	    -16.28208766	    -11.02270699	     53.07528844	     45.56800694	      0.00000000	      0.00000000	      5.20367200	     -6.43781364	      1.85490839	     36.37457714	     46.53351695	      0.00000000	      0.00000000
     38.69228571	     -1.31410707	     -6.62849035	      6.37670172	      1.09131182	      0.93109317	      0.50339575	      4.98441080	      5.94252782	    -18.88884941	     13.15057469	     13.15057469	     11.59421302	     -0.82696297	     -6.53799987	     34.13023772	    -13.38551785	     -0.17884751	     42.68568023	     42.68568023	     10.18512113	    -17.93015327	     16.11151718	    -10.01847806	      7.65022449	      5.26834395	     19.72945617	    -16.83543505	    -11.23757554	     54.27569809	     45.54537238	      0.00000000	      0.00000000	      3.61684630	     -6.27188817	      1.99503265	     35.39084404	     46.48541782	      0.00000000	      0.00000000
     38.70342857	     -1.31103436	     -6.48857615	      6.62470659	      1.09075055	      0.93126734	      0.50302768	      3.58874986	      6.09383183	    -19.12025569	     11.60651785	     11.60651785	     11.63782007	      0.03935194	     -6.52280599	     34.00572189	    -12.73894957	     -0.32106259	     38.53657799	     38.53657799	      9.75336458	    -17.46270095	     16.11768740	    -10.07820031	      7.40125460	      4.27891623	     22.11672994	    -16.10715335	    -11.22310488	     56.94714560	     45.46138761	      0.00000000	      0.00000000	      1.97153611	     -6.49330668	      2.32830284	     32.90816221	     46.40296182	      0.00000000	      0.00000000
     38.71457143	     -1.36481869	     -6.68058689	      6.88674163	      1.09020402	      0.93082446	      0.50259265	      2.40188137	      6.54197868	    -19.61155210	     10.28244680	     10.28244680	     11.68226228	      1.13615959	     -6.79528332	     34.07479056	    -12.47059040	     -0.38610176	     34.61366918	     34.61366918	      9.29177564	    -16.41110811	     15.34249957	    -10.03935664	      7.64029425	      3.89636553	     24.06641571	    -16.02129060	    -11.13523483	     59.94037281	     45.36423452	      0.00000000	      0.00000000	      0.76304976	     -6.39775236	      2.72003720	     30.00272901	     46.31484698	      0.00000000	      0.00000000
     38.72571429	     -1.57723151	     -6.81620022	      7.01668795	      1.08974477	      0.93001463	      0.50211567	      1.49470656	      6.85663145	    -20.03373784	      9.19736434	      9.19736434	     11.63419472	      2.19416260	     -7.58385590	     34.03320867	    -12.21881160	     -0.75720100	     30.44992423	     30.44992423	      7.79018955	    -15.25126932	     12.06810762	     -9.81530189	      7.75191326	      5.00632482	     24.34771510	    -17.15716227	    -11.49679702	     64.91633832	     45.22773433	      0.00000000	      0.00000000	      0.90800024	     -5.91720447	      3.48583919	     25.44534064	     46.15154626	      0.00000000	      0.00000000
     38.73685714	     -1.80288865	     -6.83198147	      7.12414957	      1.08933778	      0.92916601	      0.50154588	      0.67573790	      7.04535993	    -20.07340453	      8.29947059	      8.29947059	     11.85128911	      2.69187116	     -7.59095198	     34.01570554	    -11.84238891	     -1.14338563	     26.73438615	     26.73438615	      7.74474401	    -13.41887154	     12.48050153	     -9.56963485	      7.68626157	      4.84073787	     26.41236303	    -17.05812284	    -11.66609212	     66.77472106	     45.18274410	      0.00000000	      0.00000000	     -0.77387477	     -5.95916730	      3.60351083	     24.40427505	     46.09608629	      0.00000000	      0.00000000
     38.74800000	     -1.93691687	     -6.95650579	      7.22658738	      1.08917334	      0.92820810	      0.50088664	     -0.32144956	      7.37481195	    -20.25726910	      7.25364522	      7.25364522	     12.00933002	      3.51885438	     -7.60147140	     33.97162082	    -11.61700006	     -1.55625359	     23.48421135	     23.48421135	      7.74769372	    -11.40126398	     12.75931649	     -9.39364185	      7.80617768	      4.51916743	     28.47978323	    -16.85334473	    -11.69970390	     69.36774846	     45.10991793	      0.00000000	      0.00000000	     -2.45057582	     -5.98064993	      3.78060193	     23.18097768	     46.02938293	      0.00000000	      0.00000000
     38.75914286	     -2.13381299	     -7.11168679	      7.28168223	      1.08909578	      0.92698960	      0.50014608	     -1.19420305	      7.68887675	    -20.54919983	      6.33667148	      6.33667148	     12.23922701	      4.58063739	     -7.58687423	     34.06647164	    -11.46883322	     -2.12185995	     20.79718718	     20.79718718	      7.76538277	     -9.23140992	     12.94750722	     -9.20139864	      7.95748167	      4.61981977	     29.88266815	    -17.06663882	    -11.62655526	     72.94387016	     45.00873061	      0.00000000	      0.00000000	     -3.87940173	     -5.95592239	      4.11638336	     21.99044213	     45.92838933	      0.00000000	      0.00000000
     38.77028571	     -2.34839520	     -7.12027882	      7.25671299	      1.08906913	      0.92573922	      0.49928169	     -1.87520797	      7.77798080	    -20.50491127	      5.81002773	      5.81002773	     12.56899452	      4.99217367	     -7.55018154	     34.05060021	    -11.15786969	     -2.67615380	     18.45855206	     18.45855206	      7.68526089	     -7.58434662	     13.37027396	     -8.96338190	      7.92756784	      4.60112342	     31.73800461	    -17.00478676	    -11.69940634	     75.25695244	     44.94959383	      0.00000000	      0.00000000	     -5.47060064	     -5.97989991	      4.27663715	     21.21279811	     45.86139647	      0.00000000	      0.00000000
     38.78142857	     -2.56972236	     -7.15452713	      7.20224609	      1.08914788	      0.92436962	      0.49835123	     -2.50807100	      7.86478578	    -20.44542535	      5.37283530	      5.37283530	     12.94196921	      5.43598473	     -7.44247495	     34.13643174	    -10.91158637	     -3.29065054	     16.81871167	     16.81871167	      7.59833558	     -6.13385241	     13.65109794	     -8.72256079	      7.93722082	      4.54173256	     33.48243400	    -16.89481679	    -11.67139188	     77.81896766	     44.87982375	      0.00000000	      0.00000000	     -7.13168635	     -6.00786842	      4.42873787	     20.66094411	     45.79013677	      0.00000000	      0.00000000
     38.79257143	     -2.80940228	     -7.17595310	      7.09761741	      1.08928465	      0.92294821	      0.49733506	     -3.01922604	      7.88365522	    -20.33454596	      5.15815895	      5.15815895	     13.37391304	      5.73777970	     -7.31873859	     34.24317912	    -10.67230385	     -3.88179048	     15.74885119	     15.74885119	      7.44304168	     -5.12978894	     13.77039170	     -8.46910561	      7.92507027	      4.54826380	     35.19503624	    -16.79189716	    -11.61873016	     80.19775037	     44.81465872	      0.00000000	      0.00000000	     -8.75660888	     -6.02211287	      4.54332406	     20.30096558	     45.72501407	      0.00000000	      0.00000000
     38.80371429	     -3.05286593	     -7.16657398	      6.96121868	      1.08954815	      0.92143010	      0.49617507	     -3.46388778	      7.82381166	    -20.22000244	      5.09979457	      5.09979457	     13.89379650	      6.01819764	     -7.06477740	     34.41488864	    -10.43294969	     -4.47193984	     15.37394134	     15.37394134	      7.24189355	     -4.58729252	     13.59627045	     -8.22020058	      7.88651546	      4.53642524	     36.77517791	    -16.68400856	    -11.49064588	     82.85698679	     44.74044432	      0.00000000	      0.00000000	    -10.43496188	     -6.02650373	      4.67712956	     20.20270249	     45.64884593	      0.00000000	      0.00000000
     38.81485714	     -3.32362936	     -7.11422687	      6.76368280	      1.08984948	      0.91990457	      0.49486795	     -3.82504580	      7.67023805	    -20.00824261	      5.15695193	      5.15695193	     14.37037642	      6.14036203	     -6.97437257	     34.57095761	    -10.16446433	     -4.92875900	     15.45399705	     15.45399705	      6.89594751	     -4.64180862	     13.46252436	     -7.89957952	      7.82061836	      4.79662273	     38.50178131	    -16.83561508	    -11.53701500	     84.46595624	     44.70167426	      0.00000000	      0.00000000	    -11.81454801	     -5.98353032	      4.72864975	     20.00391767	     45.60249232	      0.00000000	      0.00000000
